<svg xmlns="http://www.w3.org/2000/svg" xmlns:xlink="http://www.w3.org/1999/xlink" width="800" height="600" viewBox="0 0 3200 2400">
<defs>
  <clipPath id="clip410">
    <rect x="0" y="0" width="3200" height="2400"></rect>
  </clipPath>
</defs>
<path clip-path="url(#clip410)" d="M0 2400 L3200 2400 L3200 0 L0 0  Z" fill="#ffffff" fill-rule="evenodd" fill-opacity="1"></path>
<defs>
  <clipPath id="clip411">
    <rect x="640" y="0" width="2241" height="2241"></rect>
  </clipPath>
</defs>
<path clip-path="url(#clip410)" d="M279.443 2151.46 L3152.76 2151.46 L3152.76 160.192 L279.443 160.192  Z" fill="#ffffff" fill-rule="evenodd" fill-opacity="1"></path>
<defs>
  <clipPath id="clip412">
    <rect x="279" y="160" width="2874" height="1992"></rect>
  </clipPath>
</defs>
<polyline clip-path="url(#clip412)" style="stroke:#000000; stroke-linecap:round; stroke-linejoin:round; stroke-width:2; stroke-opacity:0.1; fill:none" points="465.02,2151.46 465.02,160.192 "></polyline>
<polyline clip-path="url(#clip412)" style="stroke:#000000; stroke-linecap:round; stroke-linejoin:round; stroke-width:2; stroke-opacity:0.1; fill:none" points="986.303,2151.46 986.303,160.192 "></polyline>
<polyline clip-path="url(#clip412)" style="stroke:#000000; stroke-linecap:round; stroke-linejoin:round; stroke-width:2; stroke-opacity:0.1; fill:none" points="1507.59,2151.46 1507.59,160.192 "></polyline>
<polyline clip-path="url(#clip412)" style="stroke:#000000; stroke-linecap:round; stroke-linejoin:round; stroke-width:2; stroke-opacity:0.1; fill:none" points="2028.87,2151.46 2028.87,160.192 "></polyline>
<polyline clip-path="url(#clip412)" style="stroke:#000000; stroke-linecap:round; stroke-linejoin:round; stroke-width:2; stroke-opacity:0.1; fill:none" points="2550.15,2151.46 2550.15,160.192 "></polyline>
<polyline clip-path="url(#clip412)" style="stroke:#000000; stroke-linecap:round; stroke-linejoin:round; stroke-width:2; stroke-opacity:0.1; fill:none" points="3071.44,2151.46 3071.44,160.192 "></polyline>
<polyline clip-path="url(#clip412)" style="stroke:#000000; stroke-linecap:round; stroke-linejoin:round; stroke-width:2; stroke-opacity:0.1; fill:none" points="465.02,2151.46 465.02,160.192 "></polyline>
<polyline clip-path="url(#clip412)" style="stroke:#000000; stroke-linecap:round; stroke-linejoin:round; stroke-width:2; stroke-opacity:0.1; fill:none" points="986.303,2151.46 986.303,160.192 "></polyline>
<polyline clip-path="url(#clip412)" style="stroke:#000000; stroke-linecap:round; stroke-linejoin:round; stroke-width:2; stroke-opacity:0.1; fill:none" points="1507.59,2151.46 1507.59,160.192 "></polyline>
<polyline clip-path="url(#clip412)" style="stroke:#000000; stroke-linecap:round; stroke-linejoin:round; stroke-width:2; stroke-opacity:0.1; fill:none" points="2028.87,2151.46 2028.87,160.192 "></polyline>
<polyline clip-path="url(#clip412)" style="stroke:#000000; stroke-linecap:round; stroke-linejoin:round; stroke-width:2; stroke-opacity:0.1; fill:none" points="2550.15,2151.46 2550.15,160.192 "></polyline>
<polyline clip-path="url(#clip412)" style="stroke:#000000; stroke-linecap:round; stroke-linejoin:round; stroke-width:2; stroke-opacity:0.1; fill:none" points="3071.44,2151.46 3071.44,160.192 "></polyline>
<polyline clip-path="url(#clip410)" style="stroke:#000000; stroke-linecap:round; stroke-linejoin:round; stroke-width:4; stroke-opacity:1; fill:none" points="279.443,2151.46 3152.76,2151.46 "></polyline>
<polyline clip-path="url(#clip410)" style="stroke:#000000; stroke-linecap:round; stroke-linejoin:round; stroke-width:4; stroke-opacity:1; fill:none" points="279.443,160.192 3152.76,160.192 "></polyline>
<polyline clip-path="url(#clip410)" style="stroke:#000000; stroke-linecap:round; stroke-linejoin:round; stroke-width:4; stroke-opacity:1; fill:none" points="465.02,2151.46 465.02,2132.56 "></polyline>
<polyline clip-path="url(#clip410)" style="stroke:#000000; stroke-linecap:round; stroke-linejoin:round; stroke-width:4; stroke-opacity:1; fill:none" points="986.303,2151.46 986.303,2132.56 "></polyline>
<polyline clip-path="url(#clip410)" style="stroke:#000000; stroke-linecap:round; stroke-linejoin:round; stroke-width:4; stroke-opacity:1; fill:none" points="1507.59,2151.46 1507.59,2132.56 "></polyline>
<polyline clip-path="url(#clip410)" style="stroke:#000000; stroke-linecap:round; stroke-linejoin:round; stroke-width:4; stroke-opacity:1; fill:none" points="2028.87,2151.46 2028.87,2132.56 "></polyline>
<polyline clip-path="url(#clip410)" style="stroke:#000000; stroke-linecap:round; stroke-linejoin:round; stroke-width:4; stroke-opacity:1; fill:none" points="2550.15,2151.46 2550.15,2132.56 "></polyline>
<polyline clip-path="url(#clip410)" style="stroke:#000000; stroke-linecap:round; stroke-linejoin:round; stroke-width:4; stroke-opacity:1; fill:none" points="3071.44,2151.46 3071.44,2132.56 "></polyline>
<polyline clip-path="url(#clip410)" style="stroke:#000000; stroke-linecap:round; stroke-linejoin:round; stroke-width:4; stroke-opacity:1; fill:none" points="465.02,160.192 465.02,179.09 "></polyline>
<polyline clip-path="url(#clip410)" style="stroke:#000000; stroke-linecap:round; stroke-linejoin:round; stroke-width:4; stroke-opacity:1; fill:none" points="986.303,160.192 986.303,179.09 "></polyline>
<polyline clip-path="url(#clip410)" style="stroke:#000000; stroke-linecap:round; stroke-linejoin:round; stroke-width:4; stroke-opacity:1; fill:none" points="1507.59,160.192 1507.59,179.09 "></polyline>
<polyline clip-path="url(#clip410)" style="stroke:#000000; stroke-linecap:round; stroke-linejoin:round; stroke-width:4; stroke-opacity:1; fill:none" points="2028.87,160.192 2028.87,179.09 "></polyline>
<polyline clip-path="url(#clip410)" style="stroke:#000000; stroke-linecap:round; stroke-linejoin:round; stroke-width:4; stroke-opacity:1; fill:none" points="2550.15,160.192 2550.15,179.09 "></polyline>
<polyline clip-path="url(#clip410)" style="stroke:#000000; stroke-linecap:round; stroke-linejoin:round; stroke-width:4; stroke-opacity:1; fill:none" points="3071.44,160.192 3071.44,179.09 "></polyline>
<path clip-path="url(#clip410)" d="M448.188 2245.77 L461.556 2245.77 L461.556 2199.63 L447.014 2202.55 L447.014 2195.1 L461.475 2192.18 L469.658 2192.18 L469.658 2245.77 L483.026 2245.77 L483.026 2252.66 L448.188 2252.66 L448.188 2245.77 Z" fill="#000000" fill-rule="nonzero" fill-opacity="1"></path><path clip-path="url(#clip410)" d="M976.945 2245.77 L1005.5 2245.77 L1005.5 2252.66 L967.102 2252.66 L967.102 2245.77 Q971.76 2240.95 979.781 2232.85 Q987.842 2224.71 989.908 2222.36 Q993.838 2217.94 995.377 2214.91 Q996.957 2211.83 996.957 2208.87 Q996.957 2204.05 993.554 2201.01 Q990.192 2197.97 984.764 2197.97 Q980.915 2197.97 976.621 2199.31 Q972.368 2200.65 967.507 2203.36 L967.507 2195.1 Q972.449 2193.11 976.743 2192.1 Q981.037 2191.09 984.602 2191.09 Q994 2191.09 999.59 2195.79 Q1005.18 2200.48 1005.18 2208.34 Q1005.18 2212.07 1003.76 2215.43 Q1002.39 2218.75 998.699 2223.29 Q997.686 2224.47 992.258 2230.1 Q986.83 2235.69 976.945 2245.77 Z" fill="#000000" fill-rule="nonzero" fill-opacity="1"></path><path clip-path="url(#clip410)" d="M1515.02 2220.05 Q1520.89 2221.31 1524.17 2225.28 Q1527.5 2229.25 1527.5 2235.08 Q1527.5 2244.03 1521.34 2248.93 Q1515.18 2253.83 1503.84 2253.83 Q1500.03 2253.83 1495.98 2253.06 Q1491.97 2252.34 1487.68 2250.84 L1487.68 2242.94 Q1491.08 2244.92 1495.13 2245.94 Q1499.18 2246.95 1503.6 2246.95 Q1511.29 2246.95 1515.3 2243.91 Q1519.35 2240.87 1519.35 2235.08 Q1519.35 2229.73 1515.59 2226.73 Q1511.86 2223.7 1505.18 2223.7 L1498.13 2223.7 L1498.13 2216.97 L1505.5 2216.97 Q1511.54 2216.97 1514.74 2214.58 Q1517.94 2212.15 1517.94 2207.61 Q1517.94 2202.96 1514.61 2200.48 Q1511.33 2197.97 1505.18 2197.97 Q1501.81 2197.97 1497.97 2198.7 Q1494.12 2199.43 1489.5 2200.97 L1489.5 2193.68 Q1494.16 2192.38 1498.21 2191.73 Q1502.3 2191.09 1505.91 2191.09 Q1515.22 2191.09 1520.65 2195.34 Q1526.08 2199.55 1526.08 2206.76 Q1526.08 2211.79 1523.2 2215.27 Q1520.33 2218.71 1515.02 2220.05 Z" fill="#000000" fill-rule="nonzero" fill-opacity="1"></path><path clip-path="url(#clip410)" d="M2034.14 2199.31 L2013.48 2231.6 L2034.14 2231.6 L2034.14 2199.31 M2031.99 2192.18 L2042.28 2192.18 L2042.28 2231.6 L2050.91 2231.6 L2050.91 2238.4 L2042.28 2238.4 L2042.28 2252.66 L2034.14 2252.66 L2034.14 2238.4 L2006.83 2238.4 L2006.83 2230.5 L2031.99 2192.18 Z" fill="#000000" fill-rule="nonzero" fill-opacity="1"></path><path clip-path="url(#clip410)" d="M2533.14 2192.18 L2565.26 2192.18 L2565.26 2199.07 L2540.63 2199.07 L2540.63 2213.89 Q2542.42 2213.29 2544.2 2213 Q2545.98 2212.68 2547.76 2212.68 Q2557.89 2212.68 2563.8 2218.23 Q2569.72 2223.78 2569.72 2233.26 Q2569.72 2243.02 2563.64 2248.45 Q2557.57 2253.83 2546.51 2253.83 Q2542.7 2253.83 2538.73 2253.19 Q2534.8 2252.54 2530.59 2251.24 L2530.59 2243.02 Q2534.23 2245 2538.12 2245.98 Q2542.01 2246.95 2546.34 2246.95 Q2553.35 2246.95 2557.44 2243.26 Q2561.54 2239.58 2561.54 2233.26 Q2561.54 2226.94 2557.44 2223.25 Q2553.35 2219.56 2546.34 2219.56 Q2543.06 2219.56 2539.78 2220.29 Q2536.54 2221.02 2533.14 2222.56 L2533.14 2192.18 Z" fill="#000000" fill-rule="nonzero" fill-opacity="1"></path><path clip-path="url(#clip410)" d="M3072.14 2219.16 Q3066.64 2219.16 3063.39 2222.93 Q3060.19 2226.69 3060.19 2233.26 Q3060.19 2239.78 3063.39 2243.59 Q3066.64 2247.35 3072.14 2247.35 Q3077.65 2247.35 3080.85 2243.59 Q3084.09 2239.78 3084.09 2233.26 Q3084.09 2226.69 3080.85 2222.93 Q3077.65 2219.16 3072.14 2219.16 M3088.39 2193.52 L3088.39 2200.97 Q3085.31 2199.51 3082.15 2198.74 Q3079.03 2197.97 3075.95 2197.97 Q3067.85 2197.97 3063.56 2203.44 Q3059.3 2208.91 3058.7 2219.97 Q3061.09 2216.44 3064.69 2214.58 Q3068.3 2212.68 3072.63 2212.68 Q3081.75 2212.68 3087.01 2218.23 Q3092.32 2223.74 3092.32 2233.26 Q3092.32 2242.57 3086.81 2248.2 Q3081.3 2253.83 3072.14 2253.83 Q3061.65 2253.83 3056.1 2245.81 Q3050.55 2237.75 3050.55 2222.48 Q3050.55 2208.14 3057.36 2199.63 Q3064.16 2191.09 3075.63 2191.09 Q3078.71 2191.09 3081.83 2191.69 Q3084.99 2192.3 3088.39 2193.52 Z" fill="#000000" fill-rule="nonzero" fill-opacity="1"></path><path clip-path="url(#clip410)" d="M1442.4 2311.69 L1442.4 2365.44 L1453.69 2365.44 Q1468 2365.44 1474.62 2358.96 Q1481.29 2352.48 1481.29 2338.49 Q1481.29 2324.61 1474.62 2318.17 Q1468 2311.69 1453.69 2311.69 L1442.4 2311.69 M1433.05 2304 L1452.26 2304 Q1472.35 2304 1481.75 2312.38 Q1491.15 2320.72 1491.15 2338.49 Q1491.15 2356.36 1481.7 2364.74 Q1472.26 2373.12 1452.26 2373.12 L1433.05 2373.12 L1433.05 2304 Z" fill="#000000" fill-rule="nonzero" fill-opacity="1"></path><path clip-path="url(#clip410)" d="M1505.68 2321.27 L1514.2 2321.27 L1514.2 2373.12 L1505.68 2373.12 L1505.68 2321.27 M1505.68 2301.09 L1514.2 2301.09 L1514.2 2311.87 L1505.68 2311.87 L1505.68 2301.09 Z" fill="#000000" fill-rule="nonzero" fill-opacity="1"></path><path clip-path="url(#clip410)" d="M1565.08 2322.8 L1565.08 2330.86 Q1561.47 2329 1557.58 2328.08 Q1553.69 2327.15 1549.53 2327.15 Q1543.18 2327.15 1539.99 2329.1 Q1536.84 2331.04 1536.84 2334.93 Q1536.84 2337.89 1539.11 2339.61 Q1541.38 2341.27 1548.23 2342.8 L1551.15 2343.45 Q1560.22 2345.39 1564.02 2348.96 Q1567.86 2352.48 1567.86 2358.82 Q1567.86 2366.04 1562.12 2370.25 Q1556.42 2374.47 1546.42 2374.47 Q1542.26 2374.47 1537.72 2373.63 Q1533.23 2372.85 1528.23 2371.23 L1528.23 2362.43 Q1532.95 2364.88 1537.54 2366.13 Q1542.12 2367.34 1546.61 2367.34 Q1552.63 2367.34 1555.87 2365.3 Q1559.11 2363.22 1559.11 2359.47 Q1559.11 2355.99 1556.75 2354.14 Q1554.43 2352.29 1546.52 2350.58 L1543.55 2349.88 Q1535.64 2348.22 1532.12 2344.79 Q1528.6 2341.32 1528.6 2335.3 Q1528.6 2327.99 1533.79 2324 Q1538.97 2320.02 1548.51 2320.02 Q1553.23 2320.02 1557.4 2320.72 Q1561.56 2321.41 1565.08 2322.8 Z" fill="#000000" fill-rule="nonzero" fill-opacity="1"></path><path clip-path="url(#clip410)" d="M1589.85 2306.55 L1589.85 2321.27 L1607.4 2321.27 L1607.4 2327.89 L1589.85 2327.89 L1589.85 2356.04 Q1589.85 2362.38 1591.56 2364.19 Q1593.32 2365.99 1598.65 2365.99 L1607.4 2365.99 L1607.4 2373.12 L1598.65 2373.12 Q1588.79 2373.12 1585.04 2369.47 Q1581.29 2365.76 1581.29 2356.04 L1581.29 2327.89 L1575.04 2327.89 L1575.04 2321.27 L1581.29 2321.27 L1581.29 2306.55 L1589.85 2306.55 Z" fill="#000000" fill-rule="nonzero" fill-opacity="1"></path><path clip-path="url(#clip410)" d="M1642.16 2347.06 Q1631.84 2347.06 1627.86 2349.42 Q1623.88 2351.78 1623.88 2357.48 Q1623.88 2362.01 1626.84 2364.7 Q1629.85 2367.34 1634.99 2367.34 Q1642.07 2367.34 1646.33 2362.34 Q1650.64 2357.29 1650.64 2348.96 L1650.64 2347.06 L1642.16 2347.06 M1659.16 2343.54 L1659.16 2373.12 L1650.64 2373.12 L1650.64 2365.25 Q1647.72 2369.98 1643.37 2372.24 Q1639.02 2374.47 1632.72 2374.47 Q1624.76 2374.47 1620.04 2370.02 Q1615.36 2365.53 1615.36 2358.03 Q1615.36 2349.28 1621.19 2344.84 Q1627.07 2340.39 1638.69 2340.39 L1650.64 2340.39 L1650.64 2339.56 Q1650.64 2333.68 1646.75 2330.49 Q1642.91 2327.24 1635.91 2327.24 Q1631.47 2327.24 1627.26 2328.31 Q1623.04 2329.37 1619.16 2331.5 L1619.16 2323.63 Q1623.83 2321.83 1628.23 2320.95 Q1632.63 2320.02 1636.79 2320.02 Q1648.04 2320.02 1653.6 2325.86 Q1659.16 2331.69 1659.16 2343.54 Z" fill="#000000" fill-rule="nonzero" fill-opacity="1"></path><path clip-path="url(#clip410)" d="M1719.8 2341.83 L1719.8 2373.12 L1711.28 2373.12 L1711.28 2342.11 Q1711.28 2334.74 1708.41 2331.09 Q1705.54 2327.43 1699.8 2327.43 Q1692.91 2327.43 1688.92 2331.83 Q1684.94 2336.23 1684.94 2343.82 L1684.94 2373.12 L1676.38 2373.12 L1676.38 2321.27 L1684.94 2321.27 L1684.94 2329.33 Q1688 2324.65 1692.12 2322.34 Q1696.28 2320.02 1701.7 2320.02 Q1710.64 2320.02 1715.22 2325.58 Q1719.8 2331.09 1719.8 2341.83 Z" fill="#000000" fill-rule="nonzero" fill-opacity="1"></path><path clip-path="url(#clip410)" d="M1774.11 2323.26 L1774.11 2331.23 Q1770.5 2329.24 1766.84 2328.26 Q1763.23 2327.24 1759.53 2327.24 Q1751.24 2327.24 1746.65 2332.52 Q1742.07 2337.75 1742.07 2347.24 Q1742.07 2356.74 1746.65 2362.01 Q1751.24 2367.24 1759.53 2367.24 Q1763.23 2367.24 1766.84 2366.27 Q1770.5 2365.25 1774.11 2363.26 L1774.11 2371.13 Q1770.54 2372.8 1766.7 2373.63 Q1762.9 2374.47 1758.6 2374.47 Q1746.89 2374.47 1739.99 2367.11 Q1733.09 2359.74 1733.09 2347.24 Q1733.09 2334.56 1740.03 2327.29 Q1747.03 2320.02 1759.15 2320.02 Q1763.09 2320.02 1766.84 2320.86 Q1770.59 2321.64 1774.11 2323.26 Z" fill="#000000" fill-rule="nonzero" fill-opacity="1"></path><path clip-path="url(#clip410)" d="M1833.27 2345.07 L1833.27 2349.24 L1794.11 2349.24 Q1794.66 2358.03 1799.39 2362.66 Q1804.15 2367.24 1812.63 2367.24 Q1817.53 2367.24 1822.12 2366.04 Q1826.75 2364.84 1831.28 2362.43 L1831.28 2370.48 Q1826.7 2372.43 1821.89 2373.45 Q1817.07 2374.47 1812.12 2374.47 Q1799.71 2374.47 1792.44 2367.24 Q1785.22 2360.02 1785.22 2347.71 Q1785.22 2334.98 1792.07 2327.52 Q1798.97 2320.02 1810.64 2320.02 Q1821.1 2320.02 1827.16 2326.78 Q1833.27 2333.49 1833.27 2345.07 M1824.76 2342.57 Q1824.66 2335.58 1820.82 2331.41 Q1817.02 2327.24 1810.73 2327.24 Q1803.6 2327.24 1799.29 2331.27 Q1795.03 2335.3 1794.39 2342.61 L1824.76 2342.57 Z" fill="#000000" fill-rule="nonzero" fill-opacity="1"></path><path clip-path="url(#clip410)" d="M1897.86 2301.18 Q1891.65 2311.83 1888.64 2322.24 Q1885.64 2332.66 1885.64 2343.36 Q1885.64 2354.05 1888.64 2364.56 Q1891.7 2375.02 1897.86 2385.62 L1890.45 2385.62 Q1883.51 2374.74 1880.03 2364.24 Q1876.61 2353.73 1876.61 2343.36 Q1876.61 2333.03 1880.03 2322.57 Q1883.46 2312.11 1890.45 2301.18 L1897.86 2301.18 Z" fill="#000000" fill-rule="nonzero" fill-opacity="1"></path><path clip-path="url(#clip410)" d="M1944.89 2297.85 Q1944.89 2294.93 1942.81 2292.89 Q1940.77 2290.81 1937.86 2290.81 Q1934.89 2290.81 1932.86 2292.85 Q1930.87 2294.84 1930.87 2297.85 Q1930.87 2300.76 1932.9 2302.8 Q1934.94 2304.84 1937.86 2304.84 Q1940.77 2304.84 1942.81 2302.8 Q1944.89 2300.76 1944.89 2297.85 M1937.86 2313.22 L1925.26 2347.61 L1950.5 2347.61 L1937.86 2313.22 M1930.87 2308.45 Q1928.04 2306.55 1926.61 2303.91 Q1925.17 2301.23 1925.17 2297.85 Q1925.17 2292.52 1928.83 2288.82 Q1932.53 2285.12 1937.86 2285.12 Q1943.14 2285.12 1946.84 2288.87 Q1950.59 2292.57 1950.59 2297.85 Q1950.59 2301.09 1949.11 2303.82 Q1947.67 2306.55 1944.89 2308.45 L1969.52 2373.12 L1959.8 2373.12 L1953.51 2355.39 L1922.35 2355.39 L1916.05 2373.12 L1906.19 2373.12 L1930.87 2308.45 Z" fill="#000000" fill-rule="nonzero" fill-opacity="1"></path><path clip-path="url(#clip410)" d="M1977.9 2301.18 L1985.31 2301.18 Q1992.26 2312.11 1995.68 2322.57 Q1999.15 2333.03 1999.15 2343.36 Q1999.15 2353.73 1995.68 2364.24 Q1992.26 2374.74 1985.31 2385.62 L1977.9 2385.62 Q1984.06 2375.02 1987.07 2364.56 Q1990.13 2354.05 1990.13 2343.36 Q1990.13 2332.66 1987.07 2322.24 Q1984.06 2311.83 1977.9 2301.18 Z" fill="#000000" fill-rule="nonzero" fill-opacity="1"></path><polyline clip-path="url(#clip412)" style="stroke:#000000; stroke-linecap:round; stroke-linejoin:round; stroke-width:2; stroke-opacity:0.1; fill:none" points="279.443,1890.83 3152.76,1890.83 "></polyline>
<polyline clip-path="url(#clip412)" style="stroke:#000000; stroke-linecap:round; stroke-linejoin:round; stroke-width:2; stroke-opacity:0.1; fill:none" points="279.443,1334.84 3152.76,1334.84 "></polyline>
<polyline clip-path="url(#clip412)" style="stroke:#000000; stroke-linecap:round; stroke-linejoin:round; stroke-width:2; stroke-opacity:0.1; fill:none" points="279.443,778.843 3152.76,778.843 "></polyline>
<polyline clip-path="url(#clip412)" style="stroke:#000000; stroke-linecap:round; stroke-linejoin:round; stroke-width:2; stroke-opacity:0.1; fill:none" points="279.443,222.849 3152.76,222.849 "></polyline>
<polyline clip-path="url(#clip412)" style="stroke:#000000; stroke-linecap:round; stroke-linejoin:round; stroke-width:2; stroke-opacity:0.1; fill:none" points="279.443,1890.83 3152.76,1890.83 "></polyline>
<polyline clip-path="url(#clip412)" style="stroke:#000000; stroke-linecap:round; stroke-linejoin:round; stroke-width:2; stroke-opacity:0.1; fill:none" points="279.443,1334.84 3152.76,1334.84 "></polyline>
<polyline clip-path="url(#clip412)" style="stroke:#000000; stroke-linecap:round; stroke-linejoin:round; stroke-width:2; stroke-opacity:0.1; fill:none" points="279.443,778.843 3152.76,778.843 "></polyline>
<polyline clip-path="url(#clip412)" style="stroke:#000000; stroke-linecap:round; stroke-linejoin:round; stroke-width:2; stroke-opacity:0.1; fill:none" points="279.443,222.849 3152.76,222.849 "></polyline>
<polyline clip-path="url(#clip410)" style="stroke:#000000; stroke-linecap:round; stroke-linejoin:round; stroke-width:4; stroke-opacity:1; fill:none" points="279.443,2151.46 279.443,160.192 "></polyline>
<polyline clip-path="url(#clip410)" style="stroke:#000000; stroke-linecap:round; stroke-linejoin:round; stroke-width:4; stroke-opacity:1; fill:none" points="3152.76,2151.46 3152.76,160.192 "></polyline>
<polyline clip-path="url(#clip410)" style="stroke:#000000; stroke-linecap:round; stroke-linejoin:round; stroke-width:4; stroke-opacity:1; fill:none" points="279.443,1890.83 298.341,1890.83 "></polyline>
<polyline clip-path="url(#clip410)" style="stroke:#000000; stroke-linecap:round; stroke-linejoin:round; stroke-width:4; stroke-opacity:1; fill:none" points="279.443,1334.84 298.341,1334.84 "></polyline>
<polyline clip-path="url(#clip410)" style="stroke:#000000; stroke-linecap:round; stroke-linejoin:round; stroke-width:4; stroke-opacity:1; fill:none" points="279.443,778.843 298.341,778.843 "></polyline>
<polyline clip-path="url(#clip410)" style="stroke:#000000; stroke-linecap:round; stroke-linejoin:round; stroke-width:4; stroke-opacity:1; fill:none" points="279.443,222.849 298.341,222.849 "></polyline>
<polyline clip-path="url(#clip410)" style="stroke:#000000; stroke-linecap:round; stroke-linejoin:round; stroke-width:4; stroke-opacity:1; fill:none" points="3152.76,1890.83 3133.86,1890.83 "></polyline>
<polyline clip-path="url(#clip410)" style="stroke:#000000; stroke-linecap:round; stroke-linejoin:round; stroke-width:4; stroke-opacity:1; fill:none" points="3152.76,1334.84 3133.86,1334.84 "></polyline>
<polyline clip-path="url(#clip410)" style="stroke:#000000; stroke-linecap:round; stroke-linejoin:round; stroke-width:4; stroke-opacity:1; fill:none" points="3152.76,778.843 3133.86,778.843 "></polyline>
<polyline clip-path="url(#clip410)" style="stroke:#000000; stroke-linecap:round; stroke-linejoin:round; stroke-width:4; stroke-opacity:1; fill:none" points="3152.76,222.849 3133.86,222.849 "></polyline>
<path clip-path="url(#clip410)" d="M210.54 1865.98 Q204.221 1865.98 201.021 1872.22 Q197.861 1878.41 197.861 1890.89 Q197.861 1903.33 201.021 1909.57 Q204.221 1915.76 210.54 1915.76 Q216.9 1915.76 220.06 1909.57 Q223.26 1903.33 223.26 1890.89 Q223.26 1878.41 220.06 1872.22 Q216.9 1865.98 210.54 1865.98 M210.54 1859.5 Q220.708 1859.5 226.055 1867.56 Q231.443 1875.58 231.443 1890.89 Q231.443 1906.16 226.055 1914.22 Q220.708 1922.24 210.54 1922.24 Q200.373 1922.24 194.985 1914.22 Q189.638 1906.16 189.638 1890.89 Q189.638 1875.58 194.985 1867.56 Q200.373 1859.5 210.54 1859.5 Z" fill="#000000" fill-rule="nonzero" fill-opacity="1"></path><path clip-path="url(#clip410)" d="M194.863 1304.6 L226.987 1304.6 L226.987 1311.48 L202.357 1311.48 L202.357 1326.31 Q204.14 1325.7 205.922 1325.42 Q207.705 1325.09 209.487 1325.09 Q219.614 1325.09 225.529 1330.64 Q231.443 1336.19 231.443 1345.67 Q231.443 1355.44 225.367 1360.86 Q219.29 1366.25 208.231 1366.25 Q204.423 1366.25 200.454 1365.6 Q196.524 1364.95 192.311 1363.66 L192.311 1355.44 Q195.957 1357.42 199.846 1358.39 Q203.735 1359.36 208.069 1359.36 Q215.077 1359.36 219.169 1355.68 Q223.26 1351.99 223.26 1345.67 Q223.26 1339.35 219.169 1335.67 Q215.077 1331.98 208.069 1331.98 Q204.788 1331.98 201.507 1332.71 Q198.266 1333.44 194.863 1334.98 L194.863 1304.6 Z" fill="#000000" fill-rule="nonzero" fill-opacity="1"></path><path clip-path="url(#clip410)" d="M141.675 802.196 L155.043 802.196 L155.043 756.056 L140.5 758.973 L140.5 751.519 L154.962 748.603 L163.145 748.603 L163.145 802.196 L176.513 802.196 L176.513 809.083 L141.675 809.083 L141.675 802.196 Z" fill="#000000" fill-rule="nonzero" fill-opacity="1"></path><path clip-path="url(#clip410)" d="M210.54 753.99 Q204.221 753.99 201.021 760.229 Q197.861 766.427 197.861 778.903 Q197.861 791.34 201.021 797.578 Q204.221 803.776 210.54 803.776 Q216.9 803.776 220.06 797.578 Q223.26 791.34 223.26 778.903 Q223.26 766.427 220.06 760.229 Q216.9 753.99 210.54 753.99 M210.54 747.509 Q220.708 747.509 226.055 755.57 Q231.443 763.591 231.443 778.903 Q231.443 794.175 226.055 802.237 Q220.708 810.257 210.54 810.257 Q200.373 810.257 194.985 802.237 Q189.638 794.175 189.638 778.903 Q189.638 763.591 194.985 755.57 Q200.373 747.509 210.54 747.509 Z" fill="#000000" fill-rule="nonzero" fill-opacity="1"></path><path clip-path="url(#clip410)" d="M143.417 246.202 L156.785 246.202 L156.785 200.063 L142.242 202.979 L142.242 195.526 L156.704 192.609 L164.887 192.609 L164.887 246.202 L178.255 246.202 L178.255 253.089 L143.417 253.089 L143.417 246.202 Z" fill="#000000" fill-rule="nonzero" fill-opacity="1"></path><path clip-path="url(#clip410)" d="M194.863 192.609 L226.987 192.609 L226.987 199.496 L202.357 199.496 L202.357 214.322 Q204.14 213.714 205.922 213.431 Q207.705 213.107 209.487 213.107 Q219.614 213.107 225.529 218.656 Q231.443 224.206 231.443 233.685 Q231.443 243.448 225.367 248.876 Q219.29 254.264 208.231 254.264 Q204.423 254.264 200.454 253.616 Q196.524 252.967 192.311 251.671 L192.311 243.448 Q195.957 245.433 199.846 246.405 Q203.735 247.377 208.069 247.377 Q215.077 247.377 219.169 243.691 Q223.26 240.005 223.26 233.685 Q223.26 227.366 219.169 223.679 Q215.077 219.993 208.069 219.993 Q204.788 219.993 201.507 220.722 Q198.266 221.451 194.863 222.991 L194.863 192.609 Z" fill="#000000" fill-rule="nonzero" fill-opacity="1"></path><path clip-path="url(#clip410)" d="M2.64416 1426.73 L2.64416 1383.02 L10.5145 1383.02 L10.5145 1417.38 L30.9773 1417.38 L30.9773 1384.46 L38.8477 1384.46 L38.8477 1417.38 L63.8938 1417.38 L63.8938 1382.19 L71.7642 1382.19 L71.7642 1426.73 L2.64416 1426.73 Z" fill="#000000" fill-rule="nonzero" fill-opacity="1"></path><path clip-path="url(#clip410)" d="M40.468 1324.09 L71.7642 1324.09 L71.7642 1332.61 L40.7458 1332.61 Q33.3847 1332.61 29.7273 1335.48 Q26.07 1338.35 26.07 1344.09 Q26.07 1350.99 30.4681 1354.97 Q34.8662 1358.95 42.4588 1358.95 L71.7642 1358.95 L71.7642 1367.51 L19.9126 1367.51 L19.9126 1358.95 L27.9681 1358.95 Q23.2922 1355.89 20.9774 1351.77 Q18.6626 1347.61 18.6626 1342.19 Q18.6626 1333.26 24.2181 1328.67 Q29.7273 1324.09 40.468 1324.09 Z" fill="#000000" fill-rule="nonzero" fill-opacity="1"></path><path clip-path="url(#clip410)" d="M43.7088 1262.75 L47.8754 1262.75 L47.8754 1301.91 Q56.6716 1301.36 61.3013 1296.64 Q65.8846 1291.87 65.8846 1283.39 Q65.8846 1278.49 64.6809 1273.9 Q63.4772 1269.27 61.0698 1264.74 L69.1253 1264.74 Q71.0697 1269.32 72.0882 1274.14 Q73.1067 1278.95 73.1067 1283.9 Q73.1067 1296.31 65.8846 1303.58 Q58.6624 1310.8 46.3476 1310.8 Q33.6162 1310.8 26.1625 1303.95 Q18.6626 1297.05 18.6626 1285.39 Q18.6626 1274.92 25.4218 1268.86 Q32.1347 1262.75 43.7088 1262.75 M41.2088 1271.27 Q34.2181 1271.36 30.0514 1275.2 Q25.8848 1279 25.8848 1285.29 Q25.8848 1292.42 29.9125 1296.73 Q33.9403 1300.99 41.2551 1301.64 L41.2088 1271.27 Z" fill="#000000" fill-rule="nonzero" fill-opacity="1"></path><path clip-path="url(#clip410)" d="M27.8755 1218.72 Q27.0422 1220.15 26.6718 1221.87 Q26.2551 1223.53 26.2551 1225.57 Q26.2551 1232.79 30.9773 1236.68 Q35.6532 1240.52 44.4495 1240.52 L71.7642 1240.52 L71.7642 1249.09 L19.9126 1249.09 L19.9126 1240.52 L27.9681 1240.52 Q23.2459 1237.84 20.9774 1233.53 Q18.6626 1229.23 18.6626 1223.07 Q18.6626 1222.19 18.8015 1221.13 Q18.8941 1220.06 19.1256 1218.77 L27.8755 1218.72 Z" fill="#000000" fill-rule="nonzero" fill-opacity="1"></path><path clip-path="url(#clip410)" d="M45.2365 1177.33 Q35.9773 1177.33 30.8847 1181.17 Q25.7922 1184.97 25.7922 1191.87 Q25.7922 1198.72 30.8847 1202.56 Q35.9773 1206.36 45.2365 1206.36 Q54.4494 1206.36 59.542 1202.56 Q64.6346 1198.72 64.6346 1191.87 Q64.6346 1184.97 59.542 1181.17 Q54.4494 1177.33 45.2365 1177.33 M65.329 1168.81 Q78.5697 1168.81 85.0048 1174.69 Q91.4863 1180.57 91.4863 1192.7 Q91.4863 1197.19 90.7918 1201.17 Q90.1437 1205.15 88.7548 1208.9 L80.4678 1208.9 Q82.5048 1205.15 83.4771 1201.5 Q84.4493 1197.84 84.4493 1194.04 Q84.4493 1185.66 80.0512 1181.5 Q75.6993 1177.33 66.8568 1177.33 L62.6438 1177.33 Q67.2271 1179.97 69.4957 1184.09 Q71.7642 1188.21 71.7642 1193.95 Q71.7642 1203.49 64.4957 1209.32 Q57.2272 1215.15 45.2365 1215.15 Q33.1995 1215.15 25.9311 1209.32 Q18.6626 1203.49 18.6626 1193.95 Q18.6626 1188.21 20.9311 1184.09 Q23.1996 1179.97 27.7829 1177.33 L19.9126 1177.33 L19.9126 1168.81 L65.329 1168.81 Z" fill="#000000" fill-rule="nonzero" fill-opacity="1"></path><path clip-path="url(#clip410)" d="M76.5789 1129.69 Q85.8382 1133.3 88.6622 1136.73 Q91.4863 1140.15 91.4863 1145.9 L91.4863 1152.7 L84.3567 1152.7 L84.3567 1147.7 Q84.3567 1144.18 82.69 1142.24 Q81.0234 1140.29 74.8197 1137.93 L70.9308 1136.4 L19.9126 1157.38 L19.9126 1148.35 L60.4679 1132.15 L19.9126 1115.94 L19.9126 1106.91 L76.5789 1129.69 Z" fill="#000000" fill-rule="nonzero" fill-opacity="1"></path><path clip-path="url(#clip410)" d="M-0.179901 1044.55 Q10.4682 1050.76 20.8848 1053.77 Q31.3014 1056.78 41.9958 1056.78 Q52.6902 1056.78 63.1994 1053.77 Q73.6623 1050.71 84.2641 1044.55 L84.2641 1051.96 Q73.3845 1058.91 62.8753 1062.38 Q52.3661 1065.8 41.9958 1065.8 Q31.6718 1065.8 21.2089 1062.38 Q10.746 1058.95 -0.179901 1051.96 L-0.179901 1044.55 Z" fill="#000000" fill-rule="nonzero" fill-opacity="1"></path><path clip-path="url(#clip410)" d="M43.7088 983.674 L47.8754 983.674 L47.8754 1022.84 Q56.6716 1022.29 61.3013 1017.56 Q65.8846 1012.79 65.8846 1004.32 Q65.8846 999.415 64.6809 994.831 Q63.4772 990.202 61.0698 985.665 L69.1253 985.665 Q71.0697 990.248 72.0882 995.063 Q73.1067 999.878 73.1067 1004.83 Q73.1067 1017.24 65.8846 1024.51 Q58.6624 1031.73 46.3476 1031.73 Q33.6162 1031.73 26.1625 1024.88 Q18.6626 1017.98 18.6626 1006.31 Q18.6626 995.85 25.4218 989.785 Q32.1347 983.674 43.7088 983.674 M41.2088 992.193 Q34.2181 992.285 30.0514 996.128 Q25.8848 999.924 25.8848 1006.22 Q25.8848 1013.35 29.9125 1017.66 Q33.9403 1021.91 41.2551 1022.56 L41.2088 992.193 Z" fill="#000000" fill-rule="nonzero" fill-opacity="1"></path><path clip-path="url(#clip410)" d="M71.7642 951.498 L2.64416 977.887 L2.64416 968.119 L60.8383 946.221 L2.64416 924.276 L2.64416 914.554 L71.7642 940.897 L71.7642 951.498 Z" fill="#000000" fill-rule="nonzero" fill-opacity="1"></path><path clip-path="url(#clip410)" d="M-0.179901 906.175 L-0.179901 898.767 Q10.746 891.823 21.2089 888.397 Q31.6718 884.925 41.9958 884.925 Q52.3661 884.925 62.8753 888.397 Q73.3845 891.823 84.2641 898.767 L84.2641 906.175 Q73.6623 900.017 63.1994 897.008 Q52.6902 893.952 41.9958 893.952 Q31.3014 893.952 20.8848 897.008 Q10.4682 900.017 -0.179901 906.175 Z" fill="#000000" fill-rule="nonzero" fill-opacity="1"></path><path clip-path="url(#clip410)" d="M1079.9 26.8864 L1079.9 94.0736 L1094.03 94.0736 Q1111.91 94.0736 1120.18 85.9718 Q1128.52 77.87 1128.52 60.3932 Q1128.52 43.0322 1120.18 34.9882 Q1111.91 26.8864 1094.03 26.8864 L1079.9 26.8864 M1068.22 17.28 L1092.23 17.28 Q1117.35 17.28 1129.09 27.7545 Q1140.84 38.1711 1140.84 60.3932 Q1140.84 82.731 1129.04 93.2055 Q1117.23 103.68 1092.23 103.68 L1068.22 103.68 L1068.22 17.28 Z" fill="#000000" fill-rule="nonzero" fill-opacity="1"></path><path clip-path="url(#clip410)" d="M1159.48 17.28 L1209.13 17.28 L1209.13 27.1179 L1171.17 27.1179 L1171.17 52.5807 L1205.43 52.5807 L1205.43 62.4186 L1171.17 62.4186 L1171.17 103.68 L1159.48 103.68 L1159.48 17.28 Z" fill="#000000" fill-rule="nonzero" fill-opacity="1"></path><path clip-path="url(#clip410)" d="M1213.58 17.28 L1286.67 17.28 L1286.67 27.1179 L1256 27.1179 L1256 103.68 L1244.26 103.68 L1244.26 27.1179 L1213.58 27.1179 L1213.58 17.28 Z" fill="#000000" fill-rule="nonzero" fill-opacity="1"></path><path clip-path="url(#clip410)" d="M1394.54 91.3537 L1394.54 68.1478 L1375.45 68.1478 L1375.45 58.5414 L1406.12 58.5414 L1406.12 95.6361 Q1399.35 100.439 1391.19 102.928 Q1383.03 105.358 1373.77 105.358 Q1353.51 105.358 1342.06 93.5527 Q1330.66 81.6894 1330.66 60.5668 Q1330.66 39.3864 1342.06 27.5809 Q1353.51 15.7175 1373.77 15.7175 Q1382.22 15.7175 1389.8 17.8008 Q1397.44 19.8842 1403.86 23.9351 L1403.86 36.3771 Q1397.38 30.8795 1390.09 28.1017 Q1382.8 25.3239 1374.75 25.3239 Q1358.9 25.3239 1350.91 34.1781 Q1342.98 43.0322 1342.98 60.5668 Q1342.98 78.0436 1350.91 86.8977 Q1358.9 95.7518 1374.75 95.7518 Q1380.94 95.7518 1385.81 94.7101 Q1390.67 93.6106 1394.54 91.3537 Z" fill="#000000" fill-rule="nonzero" fill-opacity="1"></path><path clip-path="url(#clip410)" d="M1464.57 48.8192 Q1462.77 47.7775 1460.63 47.3146 Q1458.55 46.7937 1456 46.7937 Q1446.97 46.7937 1442.11 52.6965 Q1437.31 58.5414 1437.31 69.5367 L1437.31 103.68 L1426.6 103.68 L1426.6 38.8655 L1437.31 38.8655 L1437.31 48.9349 Q1440.67 43.0322 1446.05 40.1965 Q1451.43 37.303 1459.13 37.303 Q1460.23 37.303 1461.56 37.4767 Q1462.89 37.5924 1464.51 37.8817 L1464.57 48.8192 Z" fill="#000000" fill-rule="nonzero" fill-opacity="1"></path><path clip-path="url(#clip410)" d="M1498.25 46.3308 Q1489.68 46.3308 1484.71 53.0437 Q1479.73 59.6988 1479.73 71.3306 Q1479.73 82.9625 1484.65 89.6754 Q1489.62 96.3305 1498.25 96.3305 Q1506.75 96.3305 1511.73 89.6176 Q1516.71 82.9046 1516.71 71.3306 Q1516.71 59.8145 1511.73 53.1016 Q1506.75 46.3308 1498.25 46.3308 M1498.25 37.303 Q1512.14 37.303 1520.06 46.3308 Q1527.99 55.3585 1527.99 71.3306 Q1527.99 87.2449 1520.06 96.3305 Q1512.14 105.358 1498.25 105.358 Q1484.3 105.358 1476.37 96.3305 Q1468.5 87.2449 1468.5 71.3306 Q1468.5 55.3585 1476.37 46.3308 Q1484.3 37.303 1498.25 37.303 Z" fill="#000000" fill-rule="nonzero" fill-opacity="1"></path><path clip-path="url(#clip410)" d="M1544.54 78.1014 L1544.54 38.8655 L1555.19 38.8655 L1555.19 77.6963 Q1555.19 86.8977 1558.78 91.5273 Q1562.37 96.099 1569.54 96.099 Q1578.17 96.099 1583.14 90.6014 Q1588.18 85.1037 1588.18 75.613 L1588.18 38.8655 L1598.83 38.8655 L1598.83 103.68 L1588.18 103.68 L1588.18 93.7263 Q1584.3 99.6291 1579.15 102.523 Q1574.06 105.358 1567.29 105.358 Q1556.12 105.358 1550.33 98.4138 Q1544.54 91.4694 1544.54 78.1014 M1571.34 37.303 L1571.34 37.303 Z" fill="#000000" fill-rule="nonzero" fill-opacity="1"></path><path clip-path="url(#clip410)" d="M1674.64 64.5598 L1674.64 103.68 L1663.99 103.68 L1663.99 64.9071 Q1663.99 55.7057 1660.4 51.134 Q1656.81 46.5623 1649.64 46.5623 Q1641.01 46.5623 1636.04 52.0599 Q1631.06 57.5576 1631.06 67.0483 L1631.06 103.68 L1620.35 103.68 L1620.35 38.8655 L1631.06 38.8655 L1631.06 48.9349 Q1634.88 43.09 1640.03 40.1965 Q1645.24 37.303 1652.01 37.303 Q1663.18 37.303 1668.91 44.2474 Q1674.64 51.134 1674.64 64.5598 Z" fill="#000000" fill-rule="nonzero" fill-opacity="1"></path><path clip-path="url(#clip410)" d="M1738.52 48.7034 L1738.52 13.6342 L1749.17 13.6342 L1749.17 103.68 L1738.52 103.68 L1738.52 93.9578 Q1735.17 99.7448 1730.02 102.58 Q1724.92 105.358 1717.75 105.358 Q1706 105.358 1698.59 95.9833 Q1691.24 86.6083 1691.24 71.3306 Q1691.24 56.0529 1698.59 46.678 Q1706 37.303 1717.75 37.303 Q1724.92 37.303 1730.02 40.1387 Q1735.17 42.9164 1738.52 48.7034 M1702.24 71.3306 Q1702.24 83.0783 1707.04 89.7912 Q1711.9 96.4462 1720.35 96.4462 Q1728.8 96.4462 1733.66 89.7912 Q1738.52 83.0783 1738.52 71.3306 Q1738.52 59.583 1733.66 52.928 Q1728.8 46.215 1720.35 46.215 Q1711.9 46.215 1707.04 52.928 Q1702.24 59.583 1702.24 71.3306 Z" fill="#000000" fill-rule="nonzero" fill-opacity="1"></path><path clip-path="url(#clip410)" d="M1861.03 20.1156 L1861.03 31.516 Q1854.38 28.3332 1848.48 26.7707 Q1842.57 25.2082 1837.08 25.2082 Q1827.53 25.2082 1822.32 28.9119 Q1817.17 32.6156 1817.17 39.4442 Q1817.17 45.1734 1820.58 48.1247 Q1824.06 51.0182 1833.66 52.8122 L1840.72 54.259 Q1853.8 56.7474 1859.99 63.0552 Q1866.24 69.3052 1866.24 79.8375 Q1866.24 92.3953 1857.79 98.8768 Q1849.4 105.358 1833.14 105.358 Q1827.01 105.358 1820.06 103.969 Q1813.18 102.58 1805.77 99.8606 L1805.77 87.8236 Q1812.89 91.8166 1819.72 93.8421 Q1826.54 95.8675 1833.14 95.8675 Q1843.15 95.8675 1848.59 91.9324 Q1854.03 87.9972 1854.03 80.7056 Q1854.03 74.3399 1850.1 70.7519 Q1846.22 67.164 1837.31 65.37 L1830.19 63.9811 Q1817.11 61.377 1811.27 55.8215 Q1805.42 50.2659 1805.42 40.3702 Q1805.42 28.9119 1813.47 22.3147 Q1821.57 15.7175 1835.75 15.7175 Q1841.82 15.7175 1848.13 16.817 Q1854.44 17.9166 1861.03 20.1156 Z" fill="#000000" fill-rule="nonzero" fill-opacity="1"></path><path clip-path="url(#clip410)" d="M1894.54 20.4629 L1894.54 38.8655 L1916.47 38.8655 L1916.47 47.141 L1894.54 47.141 L1894.54 82.3259 Q1894.54 90.2541 1896.68 92.5111 Q1898.88 94.768 1905.54 94.768 L1916.47 94.768 L1916.47 103.68 L1905.54 103.68 Q1893.21 103.68 1888.52 99.1083 Q1883.84 94.4787 1883.84 82.3259 L1883.84 47.141 L1876.02 47.141 L1876.02 38.8655 L1883.84 38.8655 L1883.84 20.4629 L1894.54 20.4629 Z" fill="#000000" fill-rule="nonzero" fill-opacity="1"></path><path clip-path="url(#clip410)" d="M1959.93 71.0992 Q1947.03 71.0992 1942.05 74.0505 Q1937.08 77.0019 1937.08 84.1199 Q1937.08 89.7912 1940.78 93.1476 Q1944.54 96.4462 1950.97 96.4462 Q1959.82 96.4462 1965.14 90.1963 Q1970.53 83.8884 1970.53 73.4718 L1970.53 71.0992 L1959.93 71.0992 M1981.17 66.701 L1981.17 103.68 L1970.53 103.68 L1970.53 93.8421 Q1966.88 99.7448 1961.44 102.58 Q1956 105.358 1948.13 105.358 Q1938.18 105.358 1932.27 99.8027 Q1926.43 94.1893 1926.43 84.8144 Q1926.43 73.8769 1933.72 68.3214 Q1941.07 62.7659 1955.59 62.7659 L1970.53 62.7659 L1970.53 61.7242 Q1970.53 54.3747 1965.66 50.3817 Q1960.86 46.3308 1952.12 46.3308 Q1946.57 46.3308 1941.3 47.6618 Q1936.03 48.9928 1931.17 51.6548 L1931.17 41.8169 Q1937.02 39.56 1942.52 38.4604 Q1948.01 37.303 1953.22 37.303 Q1967.28 37.303 1974.23 44.5947 Q1981.17 51.8863 1981.17 66.701 Z" fill="#000000" fill-rule="nonzero" fill-opacity="1"></path><path clip-path="url(#clip410)" d="M2013.64 20.4629 L2013.64 38.8655 L2035.57 38.8655 L2035.57 47.141 L2013.64 47.141 L2013.64 82.3259 Q2013.64 90.2541 2015.78 92.5111 Q2017.98 94.768 2024.63 94.768 L2035.57 94.768 L2035.57 103.68 L2024.63 103.68 Q2012.31 103.68 2007.62 99.1083 Q2002.93 94.4787 2002.93 82.3259 L2002.93 47.141 L1995.12 47.141 L1995.12 38.8655 L2002.93 38.8655 L2002.93 20.4629 L2013.64 20.4629 Z" fill="#000000" fill-rule="nonzero" fill-opacity="1"></path><path clip-path="url(#clip410)" d="M2105.02 68.6107 L2105.02 73.819 L2056.06 73.819 Q2056.75 84.8144 2062.65 90.6014 Q2068.61 96.3305 2079.21 96.3305 Q2085.34 96.3305 2091.07 94.8259 Q2096.86 93.3213 2102.53 90.312 L2102.53 100.381 Q2096.8 102.812 2090.78 104.085 Q2084.76 105.358 2078.57 105.358 Q2063.06 105.358 2053.97 96.3305 Q2044.95 87.3028 2044.95 71.9093 Q2044.95 55.9951 2053.51 46.678 Q2062.13 37.303 2076.72 37.303 Q2089.8 37.303 2097.38 45.7521 Q2105.02 54.1432 2105.02 68.6107 M2094.37 65.4858 Q2094.25 56.7474 2089.45 51.5391 Q2084.7 46.3308 2076.83 46.3308 Q2067.92 46.3308 2062.54 51.3655 Q2057.21 56.4002 2056.4 65.5436 L2094.37 65.4858 Z" fill="#000000" fill-rule="nonzero" fill-opacity="1"></path><path clip-path="url(#clip410)" d="M2172.32 26.8864 L2172.32 59.3515 L2187.02 59.3515 Q2195.18 59.3515 2199.63 55.127 Q2204.09 50.9025 2204.09 43.09 Q2204.09 35.3355 2199.63 31.1109 Q2195.18 26.8864 2187.02 26.8864 L2172.32 26.8864 M2160.63 17.28 L2187.02 17.28 Q2201.54 17.28 2208.95 23.8772 Q2216.42 30.4165 2216.42 43.09 Q2216.42 55.8793 2208.95 62.4186 Q2201.54 68.958 2187.02 68.958 L2172.32 68.958 L2172.32 103.68 L2160.63 103.68 L2160.63 17.28 Z" fill="#000000" fill-rule="nonzero" fill-opacity="1"></path><path clip-path="url(#clip410)" d="M2232.1 17.28 L2286.73 17.28 L2286.73 27.1179 L2243.79 27.1179 L2243.79 52.6965 L2284.93 52.6965 L2284.93 62.5344 L2243.79 62.5344 L2243.79 93.8421 L2287.77 93.8421 L2287.77 103.68 L2232.1 103.68 L2232.1 17.28 Z" fill="#000000" fill-rule="nonzero" fill-opacity="1"></path><path clip-path="url(#clip410)" d="M2358.78 20.1156 L2358.78 31.516 Q2352.12 28.3332 2346.22 26.7707 Q2340.31 25.2082 2334.82 25.2082 Q2325.27 25.2082 2320.06 28.9119 Q2314.91 32.6156 2314.91 39.4442 Q2314.91 45.1734 2318.32 48.1247 Q2321.8 51.0182 2331.4 52.8122 L2338.46 54.259 Q2351.54 56.7474 2357.73 63.0552 Q2363.98 69.3052 2363.98 79.8375 Q2363.98 92.3953 2355.53 98.8768 Q2347.14 105.358 2330.88 105.358 Q2324.75 105.358 2317.8 103.969 Q2310.92 102.58 2303.51 99.8606 L2303.51 87.8236 Q2310.63 91.8166 2317.46 93.8421 Q2324.28 95.8675 2330.88 95.8675 Q2340.89 95.8675 2346.33 91.9324 Q2351.77 87.9972 2351.77 80.7056 Q2351.77 74.3399 2347.84 70.7519 Q2343.96 67.164 2335.05 65.37 L2327.93 63.9811 Q2314.85 61.377 2309.01 55.8215 Q2303.16 50.2659 2303.16 40.3702 Q2303.16 28.9119 2311.21 22.3147 Q2319.31 15.7175 2333.49 15.7175 Q2339.56 15.7175 2345.87 16.817 Q2352.18 17.9166 2358.78 20.1156 Z" fill="#000000" fill-rule="nonzero" fill-opacity="1"></path><polyline clip-path="url(#clip412)" style="stroke:#009af9; stroke-linecap:round; stroke-linejoin:round; stroke-width:4; stroke-opacity:1; fill:none" points="360.763,216.549 412.891,971.889 465.02,1445.09 517.148,1739.9 569.276,1916.81 621.405,2020.75 673.533,2073.11 725.661,2095.09 777.79,2095.1 829.918,2082.72 882.046,2062.73 934.175,2038.16 986.303,2012.66 1038.43,1987.44 1090.56,1963.29 1142.69,1943.48 1194.82,1929.08 1246.94,1919.13 1299.07,1911.97 1351.2,1906.62 1403.33,1902.48 1455.46,1899.33 1507.59,1896.99 1559.71,1895.31 1611.84,1894.18 1663.97,1893.39 1716.1,1892.87 1768.23,1892.5 1820.36,1892.24 1872.48,1892.05 1924.61,1891.9 1976.74,1891.76 2028.87,1891.62 2081,1891.49 2133.13,1891.38 2185.25,1891.33 2237.38,1891.29 2289.51,1891.26 2341.64,1891.25 2393.77,1891.2 2445.9,1891.12 2498.02,1891.04 2550.15,1891.01 2602.28,1890.97 2654.41,1890.94 2706.54,1890.93 2758.67,1890.93 2810.79,1890.94 2862.92,1890.93 2915.05,1890.88 2967.18,1890.84 3019.31,1890.83 3071.44,1890.83 "></polyline>
<path clip-path="url(#clip410)" d="M2609.74 330.248 L3056.98 330.248 L3056.98 226.568 L2609.74 226.568  Z" fill="#ffffff" fill-rule="evenodd" fill-opacity="1"></path>
<polyline clip-path="url(#clip410)" style="stroke:#000000; stroke-linecap:round; stroke-linejoin:round; stroke-width:4; stroke-opacity:1; fill:none" points="2609.74,330.248 3056.98,330.248 3056.98,226.568 2609.74,226.568 2609.74,330.248 "></polyline>
<polyline clip-path="url(#clip410)" style="stroke:#009af9; stroke-linecap:round; stroke-linejoin:round; stroke-width:4; stroke-opacity:1; fill:none" points="2641.67,278.408 2833.22,278.408 "></polyline>
<path clip-path="url(#clip410)" d="M2865.15 261.128 L2887 261.128 L2887 265.063 L2869.82 265.063 L2869.82 275.294 L2886.28 275.294 L2886.28 279.229 L2869.82 279.229 L2869.82 291.753 L2887.41 291.753 L2887.41 295.688 L2865.15 295.688 L2865.15 261.128 Z" fill="#000000" fill-rule="nonzero" fill-opacity="1"></path><path clip-path="url(#clip410)" d="M2916.47 280.04 L2916.47 295.688 L2912.21 295.688 L2912.21 280.179 Q2912.21 276.498 2910.77 274.669 Q2909.34 272.841 2906.47 272.841 Q2903.02 272.841 2901.03 275.04 Q2899.04 277.239 2899.04 281.035 L2899.04 295.688 L2894.75 295.688 L2894.75 269.762 L2899.04 269.762 L2899.04 273.79 Q2900.56 271.452 2902.62 270.294 Q2904.71 269.137 2907.41 269.137 Q2911.88 269.137 2914.17 271.915 Q2916.47 274.669 2916.47 280.04 Z" fill="#000000" fill-rule="nonzero" fill-opacity="1"></path><path clip-path="url(#clip410)" d="M2947.14 281.66 L2947.14 283.743 L2927.55 283.743 Q2927.83 288.141 2930.19 290.456 Q2932.58 292.748 2936.81 292.748 Q2939.27 292.748 2941.56 292.146 Q2943.87 291.544 2946.14 290.341 L2946.14 294.368 Q2943.85 295.34 2941.44 295.85 Q2939.04 296.359 2936.56 296.359 Q2930.35 296.359 2926.72 292.748 Q2923.11 289.137 2923.11 282.979 Q2923.11 276.614 2926.54 272.887 Q2929.98 269.137 2935.82 269.137 Q2941.05 269.137 2944.08 272.517 Q2947.14 275.873 2947.14 281.66 M2942.88 280.41 Q2942.83 276.915 2940.91 274.831 Q2939.01 272.748 2935.86 272.748 Q2932.3 272.748 2930.15 274.762 Q2928.02 276.776 2927.69 280.433 L2942.88 280.41 Z" fill="#000000" fill-rule="nonzero" fill-opacity="1"></path><path clip-path="url(#clip410)" d="M2969.15 273.743 Q2968.43 273.327 2967.58 273.142 Q2966.74 272.933 2965.72 272.933 Q2962.11 272.933 2960.17 275.294 Q2958.25 277.632 2958.25 282.03 L2958.25 295.688 L2953.97 295.688 L2953.97 269.762 L2958.25 269.762 L2958.25 273.79 Q2959.59 271.429 2961.74 270.294 Q2963.9 269.137 2966.97 269.137 Q2967.41 269.137 2967.95 269.206 Q2968.48 269.253 2969.13 269.368 L2969.15 273.743 Z" fill="#000000" fill-rule="nonzero" fill-opacity="1"></path><path clip-path="url(#clip410)" d="M2989.84 282.424 Q2989.84 277.794 2987.92 275.248 Q2986.03 272.702 2982.58 272.702 Q2979.15 272.702 2977.23 275.248 Q2975.33 277.794 2975.33 282.424 Q2975.33 287.03 2977.23 289.577 Q2979.15 292.123 2982.58 292.123 Q2986.03 292.123 2987.92 289.577 Q2989.84 287.03 2989.84 282.424 M2994.1 292.47 Q2994.1 299.09 2991.16 302.308 Q2988.22 305.549 2982.16 305.549 Q2979.91 305.549 2977.92 305.202 Q2975.93 304.877 2974.06 304.183 L2974.06 300.04 Q2975.93 301.058 2977.76 301.544 Q2979.59 302.03 2981.49 302.03 Q2985.68 302.03 2987.76 299.831 Q2989.84 297.655 2989.84 293.234 L2989.84 291.128 Q2988.53 293.419 2986.47 294.553 Q2984.41 295.688 2981.53 295.688 Q2976.77 295.688 2973.85 292.053 Q2970.93 288.419 2970.93 282.424 Q2970.93 276.405 2973.85 272.771 Q2976.77 269.137 2981.53 269.137 Q2984.41 269.137 2986.47 270.271 Q2988.53 271.405 2989.84 273.697 L2989.84 269.762 L2994.1 269.762 L2994.1 292.47 Z" fill="#000000" fill-rule="nonzero" fill-opacity="1"></path><path clip-path="url(#clip410)" d="M3013.66 298.095 Q3011.86 302.725 3010.15 304.137 Q3008.43 305.549 3005.56 305.549 L3002.16 305.549 L3002.16 301.984 L3004.66 301.984 Q3006.42 301.984 3007.39 301.151 Q3008.36 300.317 3009.54 297.215 L3010.31 295.271 L2999.82 269.762 L3004.34 269.762 L3012.44 290.04 L3020.54 269.762 L3025.05 269.762 L3013.66 298.095 Z" fill="#000000" fill-rule="nonzero" fill-opacity="1"></path></svg>